<svg id="Capa_1" data-name="Capa 1" xmlns="http://www.w3.org/2000/svg" viewBox="0 0 460.26 139.43"><defs><style>.cls-1{fill:#516218;}.cls-2{fill:#819d3d;}.cls-3{fill:#c1373f;}.cls-4{fill:#abc24d;fill-rule:evenodd;}.cls-5{fill:#fff;}.cls-6{fill:#434142;}</style></defs><title>logo-h</title><path class="cls-1" d="M54.52,47.56c12.2-7.05,19.86-19.54,26-28.75,13.6,12.72,21.17,30.46,20.89,50.93,0,2.92-.5,7-0.66,8.22,0,0.21-.56-0.37-1.3-0.81A25.4,25.4,0,0,1,96,74.6c-19.07-16-16.8-50.1-32.8-31a45.08,45.08,0,0,0-.71,57.08,57,57,0,0,1-31.58-3.58c3.44-8.39,6.15-17.63,6.15-27.34A61,61,0,0,0,34.89,54,57.05,57.05,0,0,0,54.52,47.56Z" transform="translate(-0.02 -0.01)"/><path class="cls-2" d="M30.92,97.08a56.53,56.53,0,0,1-27.32-24C-8.53,52,12.27,57.66,34.89,54a61,61,0,0,1,2.18,15.69C37.07,79.44,34.36,88.69,30.92,97.08Z" transform="translate(-0.02 -0.01)"/><path class="cls-2" d="M80.52,18.81C88.1,7.51,93.39,1.21,102,16.2c10.33,17.88,8,44.9-1.29,61.76a78.46,78.46,0,0,0,.66-8.22C101.81,50.64,94.45,31.5,80.52,18.81Z" transform="translate(-0.02 -0.01)"/><path class="cls-3" d="M96,74.6c1.11,0.94,3.57,2.6,4.75,3.36C96.13,84.6,89.86,89.69,82,94.28c-6,3.48-13,5.27-19.45,6.38a45.08,45.08,0,0,1,.71-57.08C79.2,24.5,76.94,58.6,96,74.6Z" transform="translate(-0.02 -0.01)"/><path class="cls-1" d="M100.76,78c19.13,10.53,44.6,5.64,30.19,22.8-11.83,14.09-29.14,19.87-45.74,15.08C94.18,105.67,98.94,92.1,100.76,78Z" transform="translate(-0.02 -0.01)"/><path class="cls-4" d="M34.89,54C26.71,23.1-.19,0,32.91,0a69.39,69.39,0,0,1,47.61,18.8c-6.14,9.21-13.8,21.7-26,28.75A57.05,57.05,0,0,1,34.89,54Z" transform="translate(-0.02 -0.01)"/><path class="cls-4" d="M62.5,100.66a45.5,45.5,0,0,0,22.71,15.18,69.55,69.55,0,0,1-52.3,23.61c-28.8,0-12.19-17.46-2-42.37A57,57,0,0,0,62.5,100.66Z" transform="translate(-0.02 -0.01)"/><path class="cls-5" d="M82,94.28a68.33,68.33,0,0,1-19.45,6.38,45.13,45.13,0,0,0,6.27,6.39c0.59,0.51,1.21,1,1.83,1.47l0.09,0.08a45.08,45.08,0,0,0,14.53,7.24c9-10.17,13.73-23.73,15.55-37.88C100.76,78,93.26,88.43,82,94.28Z" transform="translate(-0.02 -0.01)"/><path class="cls-6" d="M162.48,85.4V45.08h16.93a11.13,11.13,0,0,1,5,1.13,12.93,12.93,0,0,1,3.94,3A14,14,0,0,1,191,53.4a12.92,12.92,0,0,1,.94,4.79,14.09,14.09,0,0,1-.88,4.93,13.91,13.91,0,0,1-2.47,4.2,12.15,12.15,0,0,1-3.84,3,11.07,11.07,0,0,1-5,1.1H168.84v14h-6.36Zm6.36-19.65h10.51a5.3,5.3,0,0,0,2.47-.57,5.62,5.62,0,0,0,1.9-1.59A7.86,7.86,0,0,0,185,61.2a9.48,9.48,0,0,0,.46-3,8.63,8.63,0,0,0-.51-3.06,7.37,7.37,0,0,0-1.42-2.35,6.82,6.82,0,0,0-2.08-1.55A5.89,5.89,0,0,0,179,50.7H168.84v15Z" transform="translate(-0.02 -0.01)"/><path class="cls-6" d="M222,86a11.17,11.17,0,0,1-4-.7,9.64,9.64,0,0,1-3.18-2,9.07,9.07,0,0,1-2.1-3,8.93,8.93,0,0,1-.76-3.68,8,8,0,0,1,.91-3.82,9,9,0,0,1,2.58-2.95,12.63,12.63,0,0,1,4-1.94,17.88,17.88,0,0,1,5.08-.68,23.69,23.69,0,0,1,4.15.37,22.6,22.6,0,0,1,3.69,1v-1a6.26,6.26,0,0,0-1.87-4.86,7.38,7.38,0,0,0-5.4-1.85,12.91,12.91,0,0,0-4.68.89,23.6,23.6,0,0,0-4.75,2.53l-1.93-4.62a21.06,21.06,0,0,1,11.93-3.87c4.09,0,6.79,1,9.06,3.13s3.4,5.44,3.4,9.33V78c0,1.66.55,2,1.65,2V85.4h-2.48a3.87,3.87,0,0,1-2.86-.8,4.48,4.48,0,0,1-1.22-3C231.89,83.38,229.3,86,222,86Zm1.48-5.37a11.13,11.13,0,0,0,7.8-2.79,5.12,5.12,0,0,0,1-2.62V73.56a23.34,23.34,0,0,0-3.37-.83,25.31,25.31,0,0,0-3.5-.4A12.3,12.3,0,0,0,220,73.4a3.72,3.72,0,0,0-2.32,3,3.4,3.4,0,0,0,1.65,3.36A7.23,7.23,0,0,0,223.51,80.59Z" transform="translate(-0.02 -0.01)"/><path class="cls-6" d="M209.51,81.67a12.09,12.09,0,0,1-.87-3c-0.55.19-1,.34-1.18,0.38a5.46,5.46,0,0,1-1.45.23,2.67,2.67,0,0,1-2.94-2.79V43.94h-6.25V79.1a6.68,6.68,0,0,0,1.79,5,6.88,6.88,0,0,0,5,1.76,17.8,17.8,0,0,0,3.35-.36c0.64-.13,2.4-0.69,4.09-1.25A12.81,12.81,0,0,1,209.51,81.67Z" transform="translate(-0.02 -0.01)"/><path class="cls-6" d="M269.9,85.4h-6.25V68.76q0-4.2-1.33-6.1a4.53,4.53,0,0,0-4-1.9,7.7,7.7,0,0,0-2.73.5,9.18,9.18,0,0,0-2.55,1.45A11.28,11.28,0,0,0,251,64.93a7.92,7.92,0,0,0-1.44,4.13V85.4h-6.25V55.7h5.68v4.08a10,10,0,0,1,4.17-3.3,17.31,17.31,0,0,1,7.46-1.3,8.43,8.43,0,0,1,7.55,4.3,11.64,11.64,0,0,1,1.39,3.86,25.9,25.9,0,0,1,.4,4.64V85.4Z" transform="translate(-0.02 -0.01)"/><path class="cls-6" d="M291.44,65a20.74,20.74,0,0,1,1.33-7.29,20,20,0,0,1,3.9-6.45,19.25,19.25,0,0,1,14.64-6.37,18.26,18.26,0,0,1,9.63,2.45,15.67,15.67,0,0,1,6,6.35l-6,4.14A10.46,10.46,0,0,0,319,54.92a10.16,10.16,0,0,0-2.44-1.84,11,11,0,0,0-2.73-1,12.53,12.53,0,0,0-2.78-.32A10.6,10.6,0,0,0,306,53a11.14,11.14,0,0,0-3.63,3.09,13.57,13.57,0,0,0-2.19,4.32,16.33,16.33,0,0,0-.74,4.8,15.66,15.66,0,0,0,.85,5.15,13.57,13.57,0,0,0,2.41,4.34,12.06,12.06,0,0,0,3.75,3,10.23,10.23,0,0,0,4.8,1.14,13.19,13.19,0,0,0,2.84-.34,11,11,0,0,0,2.81-1.08,10.64,10.64,0,0,0,2.48-1.91,8.75,8.75,0,0,0,1.81-2.81l6.42,3.69a11.85,11.85,0,0,1-2.76,4,17.49,17.49,0,0,1-4,2.93A20.3,20.3,0,0,1,316,85.12a20.86,20.86,0,0,1-5,.63,17.15,17.15,0,0,1-7.89-1.82,20.66,20.66,0,0,1-6.16-4.75,22.08,22.08,0,0,1-4-6.64A20.72,20.72,0,0,1,291.44,65Z" transform="translate(-0.02 -0.01)"/><path class="cls-6" d="M345.91,86a16.56,16.56,0,0,1-6.47-1.21,14.75,14.75,0,0,1-4.94-3.33,14.52,14.52,0,0,1-3.16-4.88,15.79,15.79,0,0,1-1.1-5.85,16.6,16.6,0,0,1,1.08-6,14.64,14.64,0,0,1,3.12-4.94,14.94,14.94,0,0,1,5-3.37A16.59,16.59,0,0,1,346,55.13a16.13,16.13,0,0,1,6.51,1.25,14.68,14.68,0,0,1,4.89,3.35,14.19,14.19,0,0,1,3.07,4.88,16.36,16.36,0,0,1,1.05,5.8c0,0.49,0,1,0,1.42A6.47,6.47,0,0,1,361.3,73H337.81A8.08,8.08,0,0,0,340.42,78a7.69,7.69,0,0,0,2.44,1.47,10.85,10.85,0,0,0,3.33.51,8.74,8.74,0,0,0,4.29-1.12,5.18,5.18,0,0,0,2.75-2.53l6.54,1.82a13.28,13.28,0,0,1-5.26,5.6A16.2,16.2,0,0,1,345.91,86ZM354,68a7.09,7.09,0,0,0-2.61-5,8.58,8.58,0,0,0-5.58-1.88,8.76,8.76,0,0,0-3,.52A8.28,8.28,0,0,0,340.35,63a7.41,7.41,0,0,0-1.76,2.19,7,7,0,0,0-.81,2.81H354Z" transform="translate(-0.02 -0.01)"/><path class="cls-6" d="M366.13,51.5V43.94h7.6V51.5h-7.6Zm0,33.9V55.64h7.6V85.4h-7.6Z" transform="translate(-0.02 -0.01)"/><path class="cls-6" d="M410.81,70.57c0,8.86-5.56,15.19-14,15.19-4.73,0-8-1.06-10.48-4.55v4.07h-7.58V43.94h7.58V59.65c2.15-2.9,5.74-4.23,10.36-4.23C405.08,55.42,410.81,61.55,410.81,70.57Zm-6.58-.21c0-5.23-3.24-9.09-8.64-9.09s-9.49,3.8-9.49,9.09a9.34,9.34,0,0,0,9.49,9.57C401,79.93,404.23,75.73,404.23,70.36Z" transform="translate(-0.02 -0.01)"/><path class="cls-6" d="M458.91,78l-0.45.17a12.36,12.36,0,0,1-1.52.5,5.4,5.4,0,0,1-1.34.22,2.28,2.28,0,0,1-2.53-2.39v-33H446V79a7.11,7.11,0,0,0,1.92,5.29,7.31,7.31,0,0,0,5.3,1.87,17.9,17.9,0,0,0,3.43-.38,14.66,14.66,0,0,0,3.32-1l0.29-.12Z" transform="translate(-0.02 -0.01)"/><path class="cls-6" d="M443.88,85a9.56,9.56,0,0,1-1.67-5l0-.34-0.34,0c-0.62-.06-1-0.2-1-1.63V68.3c0-4-1.19-7.12-3.54-9.27S432,55.8,427.94,55.8a21.51,21.51,0,0,0-12.15,3.93l-0.29.19,2.27,5,0.4-.27a23.9,23.9,0,0,1,4.66-2.47,12.54,12.54,0,0,1,4.54-.85A7.06,7.06,0,0,1,432.49,63a5.88,5.88,0,0,1,1.75,4.58V68a22,22,0,0,0-3.21-.83,21.41,21.41,0,0,0-9.42.33,13.14,13.14,0,0,0-4.1,2,9.2,9.2,0,0,0-2.7,3.09,8.37,8.37,0,0,0-1,4,9.48,9.48,0,0,0,.8,3.86,9.9,9.9,0,0,0,2.2,3.08,10.4,10.4,0,0,0,3.31,2,11.78,11.78,0,0,0,4.15.73c6.29,0,9.23-1.93,10.85-3.69a4,4,0,0,0,1.36,2.57,5.39,5.39,0,0,0,3.4.93,15.39,15.39,0,0,0,3.75-.53l0.55-.17Zm-18.09-5a7,7,0,0,1-3.94-.76,3,3,0,0,1-1.46-3,3.34,3.34,0,0,1,2.09-2.65,12,12,0,0,1,5.29-1,18,18,0,0,1,2.68.28l0.75,0.1a22.65,22.65,0,0,1,2.87.69l0.16,0.06V75a4.82,4.82,0,0,1-.95,2.35C432.37,78.35,429.54,80,425.79,80Z" transform="translate(-0.02 -0.01)"/></svg>